<svg xmlns="http://www.w3.org/2000/svg" viewBox="0 0 944.44 208.22"><defs><style>.cls-1{fill:#030402;}.cls-2{fill:#d26f1c;}.cls-3,.cls-4{fill:#fff;}.cls-4{stroke:#fff;stroke-miterlimit:10;}</style></defs><title>Element 2</title><g id="Ebene_2" data-name="Ebene 2"><g id="Ebene_1-2" data-name="Ebene 1"><g id="bg"><path id="screen-bg" class="cls-1" d="M650.61,135.33V0H11.87A10.61,10.61,0,0,0,1.29,10.58V135.66l648.54-.32Z"/><g id="print-bg"><rect class="cls-1" x="656.61" width="286.83" height="135.37"/><rect class="cls-1" x="656.61" width="286.83" height="135.37"/></g><g id="bottom-bg"><path class="cls-1" d="M943.44,140.25v57.18a10,10,0,0,1-10,9.79H1V140.39H11l888.51-.28Z"/><path class="cls-1" d="M899.54,140.11l43.9.14v57.18a10,10,0,0,1-10,9.79H1V140.39H11l888.51-.28m0-1h0L11,139.39H0v68.83H933.41a10.93,10.93,0,0,0,11-10.79V139.25h-1l-43.9-.14Z"/></g><path id="screen-bg-2" data-name="screen-bg" class="cls-2" d="M650.61,135.33V0H11.87A10.61,10.61,0,0,0,1.29,10.58V135.66l648.54-.32Z"/><g id="print-bg-2" data-name="print-bg"><rect class="cls-1" x="656.61" width="286.83" height="135.37"/></g><g id="bottom-bg-2" data-name="bottom-bg"><path class="cls-1" d="M943.44,140.25v57.18a10,10,0,0,1-10,9.79H1V140.39H11l888.51-.28Z"/></g></g><g id="sub-logo"><g id="base"><rect class="cls-2" x="28.1" y="153.37" width="38.63" height="38.63"/></g></g><path class="cls-2" d="M682.78,59.18V48.49h10.07V59.18Zm0,45.2V93.68h10.07v10.7Z"/><path class="cls-2" d="M771.59,76.18q0,29.23-20.56,29.23-12.91,0-17.35-9.71h-.26a76.63,76.63,0,0,1,.21,8.78v21.85h-9.3V59.91q0-8.62-.31-11.42h9c0,.14.08.63.15,1.48s.15,2.14.24,3.89.12,3,.12,3.62h.21a17,17,0,0,1,6.56-7.57q4.08-2.4,10.74-2.4,10.34,0,15.45,6.92T771.59,76.18Zm-9.76.2q0-11.67-3.15-16.68t-10-5c-3.69,0-6.57.78-8.65,2.32a14.29,14.29,0,0,0-4.76,7.26,42.09,42.09,0,0,0-1.62,12.84q0,11,3.51,16.21t11.41,5.22q6.93,0,10.1-5.09T761.83,76.38Z"/><path class="cls-2" d="M783.36,104.38V61.51q0-5.9-.31-13h8.78c.28,6.34.42,10.14.42,11.42h.2q2.22-7.19,5.12-9.82t8.16-2.63a14.21,14.21,0,0,1,3.77.52V56.5a19.33,19.33,0,0,0-5-.52,9.74,9.74,0,0,0-8.83,5q-3,5-3.05,14.28v29.13Z"/><path class="cls-2" d="M818.33,36.61V27.73h9.3v8.88Zm0,67.77V48.49h9.3v55.89Z"/><path class="cls-2" d="M877.36,104.38V69a26.73,26.73,0,0,0-1.08-8.58A7.86,7.86,0,0,0,872.82,56a14.56,14.56,0,0,0-7-1.34,13.09,13.09,0,0,0-10.58,4.6q-3.88,4.59-3.88,12.75v32.39h-9.29v-44q0-9.75-.31-11.93h8.78c0,.18.07.64.1,1.4s.08,1.62.13,2.61.11,2.83.18,5.55h.15q3.21-5.79,7.42-8.19A20.82,20.82,0,0,1,869,47.46q9.19,0,13.46,4.57t4.26,15.11v37.24Z"/><path class="cls-2" d="M922.19,104a35.78,35.78,0,0,1-9.4,1.24q-11.16,0-11.15-12.65V55.26h-6.46V48.49H902L904.73,36h6.2v12.5h10.33v6.77H910.93V90.53q0,4,1.32,5.66c.88,1.08,2.4,1.63,4.57,1.63a28.34,28.34,0,0,0,5.37-.73Z"/><path class="cls-3" d="M66.86,41.23l4.82,7.56L34.82,71.27,71.68,93.8l-5.24,7.4L26.09,76V66.46Z"/><path class="cls-3" d="M115.47,97.61q6.07,0,9.6-2.22a6.85,6.85,0,0,0,3.51-6,8.75,8.75,0,0,0-.92-4.16A8.54,8.54,0,0,0,123.85,82a44.66,44.66,0,0,0-8.7-2.93,59.48,59.48,0,0,1-9.92-3.34,16.27,16.27,0,0,1-6.5-5,12.82,12.82,0,0,1-2.3-7.93,13.24,13.24,0,0,1,5.92-11.32q5.93-4.23,15.71-4.23A35.24,35.24,0,0,1,130,49.14a33.57,33.57,0,0,1,8.67,4.46l-4.33,6.62a34.22,34.22,0,0,0-7.06-3.52,26.18,26.18,0,0,0-9-1.4c-4.13,0-7.06.62-8.81,1.87a5.83,5.83,0,0,0-2.61,4.95A5.67,5.67,0,0,0,108.14,66a11.11,11.11,0,0,0,4.47,2.75,90.33,90.33,0,0,0,8.78,2.78A53.36,53.36,0,0,1,130.91,75a16.21,16.21,0,0,1,6.32,5.26,14.74,14.74,0,0,1,2.25,8.54A13.77,13.77,0,0,1,136,98.48a20.16,20.16,0,0,1-8.91,5.47,38,38,0,0,1-11.66,1.75,34.77,34.77,0,0,1-13.09-2.22A32.39,32.39,0,0,1,93.2,98l5.61-6.45a26.65,26.65,0,0,0,7.48,4.36A25,25,0,0,0,115.47,97.61Z"/><path class="cls-3" d="M190.62,97.13a21,21,0,0,0,7.59-1.35,29.75,29.75,0,0,0,6.58-3.52l4.87,6.62a29.69,29.69,0,0,1-8.86,4.94,30.12,30.12,0,0,1-10.34,1.88,27.24,27.24,0,0,1-14.36-3.6A23.23,23.23,0,0,1,167,92a34.86,34.86,0,0,1-3.12-15.23,34.8,34.8,0,0,1,3.15-15.1,24.91,24.91,0,0,1,9.12-10.5,26.07,26.07,0,0,1,14.44-3.86,29,29,0,0,1,18.93,6.56l-4.81,6.61q-7-4.86-14.07-4.87a14.35,14.35,0,0,0-11.42,5.19q-4.45,5.17-4.45,16t4.47,15.6A14.9,14.9,0,0,0,190.62,97.13Z"/><path class="cls-3" d="M234,104.38V96.87h8.47V56.14H234V48.63h16.24l1.85,13.07A28.88,28.88,0,0,1,259.87,51q4.63-3.74,12-3.73a22.19,22.19,0,0,1,4.31.37c1.26.25,2.53.57,3.84,1L278.46,68.2h-7.83V56.57h-.05q-12.52,0-18,17.92V96.87h11.32v7.51Z"/><path class="cls-3" d="M310.4,79.94q.44,9.21,5,13.38a15.55,15.55,0,0,0,10.87,4.18,22.2,22.2,0,0,0,7.67-1.27,32.42,32.42,0,0,0,7.09-3.7l4.6,6.4a31,31,0,0,1-9.05,4.94A31.39,31.39,0,0,1,326,105.7a26.16,26.16,0,0,1-14.2-3.68,23.46,23.46,0,0,1-8.88-10.23,35.82,35.82,0,0,1-3-15.23,35.51,35.51,0,0,1,3-15,25,25,0,0,1,8.59-10.42,22.79,22.79,0,0,1,13.22-3.81q10.8,0,17,7.38t6.21,20.18c0,.95,0,1.86,0,2.75s-.09,1.65-.16,2.32Zm14.39-24.7a12.9,12.9,0,0,0-9.89,4.23q-3.91,4.24-4.5,13.07h27.72q-.17-8.46-3.68-12.88A11.67,11.67,0,0,0,324.79,55.24Z"/><path class="cls-3" d="M379.16,79.94q.42,9.21,5,13.38A15.57,15.57,0,0,0,395,97.5a22.2,22.2,0,0,0,7.67-1.27,32.42,32.42,0,0,0,7.09-3.7l4.6,6.4a30.91,30.91,0,0,1-9,4.94,31.43,31.43,0,0,1-10.63,1.83,26.11,26.11,0,0,1-14.2-3.68,23.42,23.42,0,0,1-8.89-10.23,35.82,35.82,0,0,1-3-15.23,35.51,35.51,0,0,1,3-15,25,25,0,0,1,8.59-10.42,22.82,22.82,0,0,1,13.23-3.81q10.79,0,17,7.38t6.21,20.18c0,.95,0,1.86,0,2.75s-.09,1.65-.16,2.32Zm14.38-24.7a12.9,12.9,0,0,0-9.89,4.23q-3.91,4.24-4.49,13.07h27.71q-.17-8.46-3.68-12.88A11.67,11.67,0,0,0,393.54,55.24Z"/><path class="cls-3" d="M439.71,104.38V48.63h8.73l.74,7.51a22.92,22.92,0,0,1,8.38-6.56,23.55,23.55,0,0,1,9.86-2.27q8,0,11.85,4.36t3.81,12.14v40.57H472.92V70.05a49.46,49.46,0,0,0-.6-8.57,7.61,7.61,0,0,0-2.52-4.78q-1.91-1.52-5.76-1.51a13.4,13.4,0,0,0-8.25,2.8,26.49,26.49,0,0,0-5.92,6v40.36Z"/><path class="cls-3" d="M511.64,115.43l-8.15-3.65,45.17-93.13,8,3.86Z"/><path class="cls-3" d="M584.62,41.23,625.39,66.4V76L585,101.2l-5.23-7.35,36.86-22.58L579.81,48.79Z"/><path class="cls-4" d="M100.1,191.92H90.94V154.2h17q6.8,0,10.5,3.05t3.7,9.22q0,6.28-3.76,9.67t-10.44,3.39h-7.8Zm6.67-19.46a5.31,5.31,0,0,0,4.1-1.44,5.55,5.55,0,0,0,1.33-3.93q0-5.76-5.43-5.76H100.1v11.13Z"/><path class="cls-4" d="M157.83,191.92l-7.46-13h-5.65v13h-9.16V154.2h18.37q6.51,0,10.07,3t3.56,8.93a12.3,12.3,0,0,1-2,6.82,9.88,9.88,0,0,1-5.65,4.21l9.61,14.76Zm-.16-25.34a5.64,5.64,0,0,0-1.25-4,4.64,4.64,0,0,0-3.62-1.36h-8.08v10.91h7.69C155.91,172.18,157.67,170.32,157.67,166.58Z"/><path class="cls-4" d="M182.72,154.2h9.16v37.72h-9.16Z"/><path class="cls-4" d="M239.88,154.2v37.72H233L215.4,169v23H207V154.2h7.81l16.68,22.45V154.2Z"/><path class="cls-4" d="M262.9,161.27H252.32V154.2H282.8v7.07H272.06v30.65H262.9Z"/><path class="cls-4" d="M340.42,191.92l-2-2.38q-3.9,3.12-10.18,3.11a13.45,13.45,0,0,1-6.39-1.44,10.61,10.61,0,0,1-4.18-3.82,9.49,9.49,0,0,1-1.47-5.09,10.27,10.27,0,0,1,1.78-5.68,14.84,14.84,0,0,1,5.8-4.83l-.57-.68c-2.34-2.94-3.5-5.51-3.5-7.69a8.38,8.38,0,0,1,1.58-4.89,11.26,11.26,0,0,1,4.35-3.68,13.64,13.64,0,0,1,6.17-1.38,13.81,13.81,0,0,1,5.88,1.18,9.42,9.42,0,0,1,4,3.31,8.27,8.27,0,0,1,1.42,4.72,7.76,7.76,0,0,1-1.95,5.43,27.58,27.58,0,0,1-6.25,4.69l5.26,6.39a9.94,9.94,0,0,0,1.3-2.91c.22-.92.36-1.42.39-1.5h6.22a19.66,19.66,0,0,1-1.44,4.39,36.59,36.59,0,0,1-2.51,4.77l6.56,8Zm-6.16-7.47L328,176.88a8.76,8.76,0,0,0-2,2.34,4.77,4.77,0,0,0-.68,2.29,5.17,5.17,0,0,0,1,3.08c.66.93,1.89,1.39,3.7,1.39A7.08,7.08,0,0,0,334.26,184.45Zm-4.84-23.1a3,3,0,0,0-1,2.29,4,4,0,0,0,.8,2.07,22.94,22.94,0,0,0,1.69,2.29l.34.39a10.37,10.37,0,0,0,3.08-2.37,3.89,3.89,0,0,0,.88-2.43,3,3,0,0,0-1-2.29,3.44,3.44,0,0,0-2.43-.88A3.38,3.38,0,0,0,329.42,161.35Z"/><path class="cls-4" d="M391.59,192.11a20.94,20.94,0,0,1-5.88-2V181.4a19,19,0,0,0,5.8,3.14,19.89,19.89,0,0,0,6.36,1.1c3.54,0,5.32-1.34,5.32-4a3.06,3.06,0,0,0-1.7-2.75,30.82,30.82,0,0,0-5.49-2.23c-1.16-.38-1.88-.62-2.14-.74a16.25,16.25,0,0,1-6.42-3.67q-2.35-2.33-2.35-6.9a11.79,11.79,0,0,1,1.58-6,11.3,11.3,0,0,1,4.87-4.38,18,18,0,0,1,8.08-1.64,23.91,23.91,0,0,1,5.74.6,26.07,26.07,0,0,1,5.12,1.89v8.76a24.8,24.8,0,0,0-5.09-3,13.61,13.61,0,0,0-5.48-1.19,7.14,7.14,0,0,0-4,1,3.21,3.21,0,0,0-1.5,2.86,3.27,3.27,0,0,0,.91,2.4,6.05,6.05,0,0,0,2.23,1.44c.88.34,2.31.81,4.27,1.41a28.77,28.77,0,0,1,5.77,2.27,10.09,10.09,0,0,1,3.62,3.33,9.76,9.76,0,0,1,1.35,5.37,12.35,12.35,0,0,1-1.58,6.22,11.22,11.22,0,0,1-4.67,4.39,15.49,15.49,0,0,1-7.26,1.61A40.61,40.61,0,0,1,391.59,192.11Z"/><path class="cls-4" d="M424.22,173.09q0-19.74,18.55-19.74a29.82,29.82,0,0,1,12,2.77v8A19.25,19.25,0,0,0,444,160.48q-5.2,0-7.77,2.91t-2.58,9.7q0,6.78,2.63,9.61c1.76,1.89,4.46,2.83,8.12,2.83a16.42,16.42,0,0,0,4.92-.85,22.65,22.65,0,0,0,5.43-2.66v8a23.23,23.23,0,0,1-5.66,1.93,29.38,29.38,0,0,1-6.33.73Q424.22,192.65,424.22,173.09Z"/><path class="cls-4" d="M491.06,191.92l-7.47-13h-5.65v13h-9.16V154.2h18.38q6.49,0,10.06,3t3.56,8.93a12.29,12.29,0,0,1-2,6.82,9.9,9.9,0,0,1-5.66,4.21l9.62,14.76Zm-.17-25.34a5.68,5.68,0,0,0-1.24-4,4.65,4.65,0,0,0-3.62-1.36h-8.09v10.91h7.69C489.14,172.18,490.89,170.32,490.89,166.58Z"/><path class="cls-4" d="M515.94,154.2h25.84v7.07H525.1v8.2h14.47v7.12H525.1v8.26h16.68v7.07H515.94Z"/><path class="cls-4" d="M556.54,154.2h25.84v7.07H565.7v8.2h14.47v7.12H565.7v8.26h16.68v7.07H556.54Z"/><path class="cls-4" d="M630.05,154.2v37.72h-6.9l-17.59-23v23h-8.42V154.2h7.8l16.68,22.45V154.2Z"/><path class="cls-4" d="M645.6,171.67h17.24v5.83H645.6Z"/><path class="cls-4" d="M678.45,154.2h15.16q9.5,0,14.08,4.72t4.58,14.17q0,9.39-4.58,14.11t-14.08,4.72H678.45Zm14.08,30.65q5.15,0,7.75-2.89t2.6-8.87q0-6.1-2.6-9t-7.75-2.85h-4.92v23.58Z"/><path class="cls-4" d="M725.72,154.2h25.85v7.07H734.88v8.2h14.48v7.12H734.88v8.26h16.69v7.07H725.72Z"/><path class="cls-4" d="M771.52,192.11a20.94,20.94,0,0,1-5.88-2V181.4a19,19,0,0,0,5.8,3.14,19.89,19.89,0,0,0,6.36,1.1c3.54,0,5.32-1.34,5.32-4a3.06,3.06,0,0,0-1.7-2.75,31,31,0,0,0-5.48-2.23c-1.17-.38-1.89-.62-2.15-.74a16.25,16.25,0,0,1-6.42-3.67q-2.36-2.33-2.35-6.9a11.7,11.7,0,0,1,1.59-6,11.22,11.22,0,0,1,4.86-4.38,18,18,0,0,1,8.08-1.64,23.91,23.91,0,0,1,5.74.6,26.07,26.07,0,0,1,5.12,1.89v8.76a24.8,24.8,0,0,0-5.09-3,13.61,13.61,0,0,0-5.48-1.19,7.14,7.14,0,0,0-4,1,3.21,3.21,0,0,0-1.5,2.86,3.27,3.27,0,0,0,.91,2.4,6.05,6.05,0,0,0,2.23,1.44c.89.34,2.31.81,4.27,1.41a28.77,28.77,0,0,1,5.77,2.27,10.09,10.09,0,0,1,3.62,3.33,9.76,9.76,0,0,1,1.35,5.37,12.24,12.24,0,0,1-1.58,6.22,11.25,11.25,0,0,1-4.66,4.39,15.56,15.56,0,0,1-7.27,1.61A40.68,40.68,0,0,1,771.52,192.11Z"/><path class="cls-4" d="M806,154.2h9.16v37.72H806Z"/><path class="cls-4" d="M833.5,188q-4.82-4.76-4.81-14.87t4.87-14.87q4.86-4.87,13.51-4.87a34.69,34.69,0,0,1,13.46,2.77v8.32a47.78,47.78,0,0,0-6.65-3,17.37,17.37,0,0,0-5.68-1q-5.15,0-7.66,2.85T838,173q0,6.74,2.55,9.64a9.09,9.09,0,0,0,7.23,2.91,12.25,12.25,0,0,0,5.21-.9V178h-6.22v-7.13h15.38v17.76a30.86,30.86,0,0,1-15.1,4.07Q838.31,192.71,833.5,188Z"/><path class="cls-4" d="M910.18,154.2v37.72h-6.9l-17.59-23v23h-8.42V154.2h7.8l16.68,22.45V154.2Z"/></g></g></svg>